# xmcd
#
# Track frame offsets:
#	150
#	9281
#	25081
#	48258
#	57428
#	76140
#	114187
#	131984
#	166516
#	201540
#	247353
#
# Disc length: 3616 seconds
#
# Revision: 1
# Processed by: cddbd v1.5.2PL0 Copyright (c) Steve Scherf et al.
# Submitted via: audiograbber 1.83.01
#
DISCID=8b0e1e0b
DTITLE=Grateful Dead - 73-09-17 Onondaga County War Memorial, Syracuse NY
DYEAR=1900
DGENRE=
TTITLE0=Tennessee Jed
TTITLE1=Me and My Uncle
TTITLE2=They Love Each Other
TTITLE3=Stage Banter
TTITLE4=Beat It On Down The Line
TTITLE5=Sugaree
TTITLE6=Mexicali Blues
TTITLE7=Loser
TTITLE8=Looks Like Rain
TTITLE9=Row Jimmy
TTITLE10=Jack Straw
EXTD=
EXTT0=
EXTT1=
EXTT2=
EXTT3=
EXTT4=
EXTT5=
EXTT6=
EXTT7=
EXTT8=
EXTT9=
EXTT10=
PLAYORDER=
